<svg xmlns="http://www.w3.org/2000/svg" width="160" height="73" viewBox="0 0 159 73"><path d="M22.875 9.707c0-2.035-.285-3.668-.848-4.914s-1.859-1.867-3.882-1.867h-.676V.886h8.113c1.168 0 2.152.153 2.941.438a3.86 3.86 0 0 1 1.891 1.461c.477.676.8 1.578.98 2.715.184 1.125.27 2.531.27 4.207v35.922h-5.742l-2.367-3.05h-.34a7.6 7.6 0 0 1-1.89 1.898q-.951.751-2.4 1.285c-.964.36-2.128.539-3.48.539-2.39 0-4.46-.426-6.218-1.285-1.758-.856-3.239-2.032-4.422-3.524C3.609 40 2.723 38.238 2.137 36.207s-.88-4.207-.88-6.508c0-2.3.294-4.476.88-6.508.586-2.03 1.488-3.796 2.707-5.289q1.829-2.236 4.554-3.523 2.743-1.285 6.387-1.285c1.086 0 2.059.113 2.945.344.875.218 1.63.449 2.262.671.719.32 1.352.653 1.89 1.016V9.707Zm0 8.469c-.5-.36-1.035-.7-1.621-1.02q-.748-.338-1.79-.672c-.694-.23-1.48-.343-2.335-.343-1.258 0-2.317.343-3.172 1.015-.855.676-1.55 1.63-2.098 2.852-.535 1.222-.925 2.66-1.144 4.3-.23 1.653-.34 3.446-.34 5.391 0 1.946.11 3.738.34 5.387.219 1.652.586 3.09 1.082 4.305.5 1.218 1.164 2.164 1.996 2.847.828.676 1.836 1.016 3.004 1.016q1.557.002 2.668-.676a8.5 8.5 0 0 0 1.86-1.492c.585-.633 1.097-1.379 1.55-2.238ZM40.45 22.578c0-2.031-.286-3.676-.848-4.91q-.846-1.868-3.887-1.867h-.672V13.77h8.113c1.168 0 2.149.152 2.942.445a3.86 3.86 0 0 1 1.89 1.46c.477.673.801 1.579.98 2.704.184 1.129.27 2.535.27 4.207v11.32c0 3.485.5 5.91 1.489 7.285.988 1.38 2.414 2.063 4.257 2.063q1.552.002 2.664-.676a8.3 8.3 0 0 0 1.86-1.492 10.3 10.3 0 0 0 1.55-2.238V13.77h8.786v31.859h-5.746l-2.364-3.05h-.343a12.3 12.3 0 0 1-2.23 1.898q-1.08.751-2.634 1.285c-1.039.36-2.23.539-3.586.539q-6.352 0-9.421-2.953-3.078-2.949-3.079-9.524V22.57ZM77.953 9.707c0-2.035-.285-3.668-.848-4.914s-1.859-1.867-3.882-1.867h-.672V.886h8.11c1.171 0 2.151.153 2.94.438a3.86 3.86 0 0 1 1.891 1.461c.477.676.801 1.578.985 2.715.18 1.125.265 2.531.265 4.207v5.418c.54-.363 1.172-.695 1.895-1.016a27 27 0 0 1 2.23-.671c.856-.223 1.844-.344 2.973-.344 2.43 0 4.566.43 6.387 1.285 1.82.86 3.347 2.031 4.558 3.523q1.83 2.24 2.703 5.29c.586 2.03.88 4.206.88 6.507s-.294 4.477-.88 6.508q-.871 3.047-2.664 5.285-1.792 2.239-4.465 3.524-2.665 1.287-6.18 1.285c-1.35 0-2.523-.18-3.511-.54-.988-.355-1.805-.792-2.43-1.284a6.6 6.6 0 0 1-1.828-1.899h-.34l-2.363 3.05h-5.746V9.708Zm8.781 29.14q.61 1.29 1.489 2.239c.5.543 1.125 1.043 1.89 1.492q1.155.678 2.707.676c1.172 0 2.16-.34 2.977-1.016.805-.675 1.469-1.629 1.992-2.847.516-1.223.887-2.653 1.117-4.305.219-1.648.34-3.441.34-5.387s-.113-3.738-.34-5.39c-.23-1.649-.61-3.086-1.148-4.301-.54-1.223-1.242-2.168-2.098-2.852-.855-.672-1.914-1.015-3.172-1.015q-1.284-.001-2.336.343c-.695.223-1.297.453-1.785.672-.586.32-1.125.653-1.625 1.02v20.672ZM127.012 13.094c4.414 0 7.824 1.176 10.238 3.523q3.614 3.529 3.613 10.707V45.63h-5.742l-2.367-3.05h-.34a7.6 7.6 0 0 1-1.89 1.898q-.949.751-2.5 1.285c-1.036.36-2.282.539-3.72.539q-5.613-.001-8.546-2.54c-1.961-1.699-2.942-3.898-2.942-6.609q.001-2.445.805-4.304c.54-1.246 1.496-2.301 2.875-3.18 1.375-.883 3.227-1.55 5.578-2 2.34-.453 5.34-.676 8.989-.676h1.011q0-6.095-1.683-8.476c-1.125-1.578-2.707-2.375-4.735-2.375-.765 0-1.496.082-2.199.238-.695.16-1.336.46-1.922.914-.586.453-1.11 1.07-1.55 1.863-.454.797-.81 1.82-1.087 3.09h-3.718q.002-1.764.238-3.598a5.74 5.74 0 0 1 1.457-3.18c.805-.905 2.152-1.523 4.02-1.866q2.8-.509 6.117-.508m5.07 16.945h-1.012q-4.869.001-6.996 1.777c-1.414 1.192-2.129 2.993-2.129 5.414 0 1.922.395 3.364 1.18 4.348.793.984 1.86 1.469 3.21 1.469 1.04 0 1.911-.23 2.606-.68.696-.46 1.297-.96 1.79-1.512a8.6 8.6 0 0 0 1.351-2.261V30.03ZM149.71 22.578c0-2.031-.284-3.676-.847-4.91-.562-1.246-1.86-1.867-3.883-1.867h-.671V13.77h8.109c1.172 0 2.152.152 2.934.445a3.86 3.86 0 0 1 1.89 1.46c.477.673.801 1.579.98 2.704.184 1.129.27 2.535.27 4.207v23.05h-8.781Zm0 0" style="stroke:none;fill-rule:nonzero;fill:#bfbdbc;fill-opacity:1"/><path d="M142.723 56.168a.55.55 0 0 1-.141.387.51.51 0 0 1-.387.152c-.168 0-.3-.047-.398-.152a.55.55 0 0 1-.14-.387c0-.16.046-.285.14-.383a.54.54 0 0 1 .398-.148q.258-.002.387.148c.094.106.14.23.14.383M145.7 52.777c-.31 0-.563.145-.75.43-.2.285-.294.723-.294 1.316 0 1.168.364 1.747 1.082 1.747q.451.001.739-.215c.187-.14.355-.309.503-.516l.27.2c-.062.093-.14.206-.23.308a2 2 0 0 1-.333.305 1.9 1.9 0 0 1-.472.218 2.1 2.1 0 0 1-.649.09c-.351 0-.652-.055-.91-.176a1.83 1.83 0 0 1-1.047-1.14 2.7 2.7 0 0 1-.125-.828q-.001-.43.125-.825a2 2 0 0 1 .391-.683c.172-.192.395-.348.656-.461a2.3 2.3 0 0 1 .91-.164c.348 0 .61.023.836.07q.345.07.508.238a.72.72 0 0 1 .192.446c.015.187.023.441.023.777h-.262c-.023-.375-.144-.66-.347-.852-.207-.187-.485-.285-.832-.285ZM147.805 54.523q0-.448.14-.84c.098-.261.23-.492.414-.683.18-.191.395-.34.657-.453.261-.11.543-.164.879-.164.332 0 .617.054.875.164.261.113.476.262.66.453.18.191.316.422.41.684q.14.39.14.84t-.14.843a2 2 0 0 1-.41.68 1.9 1.9 0 0 1-.66.453q-.388.169-.875.168a2.2 2.2 0 0 1-.88-.168 1.906 1.906 0 0 1-1.07-1.133 2.5 2.5 0 0 1-.14-.844m3.007 0q0-.378-.058-.699a2.2 2.2 0 0 0-.172-.554 1.06 1.06 0 0 0-.285-.364.63.63 0 0 0-.395-.129.7.7 0 0 0-.406.13.93.93 0 0 0-.285.363q-.117.239-.164.554c-.04.215-.055.446-.055.7q-.002.38.055.69.059.323.164.556c.082.16.176.277.285.367a.68.68 0 0 0 .406.125.68.68 0 0 0 .395-.125 1 1 0 0 0 .285-.367c.07-.157.133-.34.172-.555q.059-.322.059-.692M153.945 52.809a2 2 0 0 1 .434-.278c.184-.093.402-.133.664-.133q.24-.002.445.055c.133.04.25.078.356.133q.153.089.254.16c.062.055.117.106.148.145q.177-.196.453-.344c.18-.102.45-.149.781-.149.485 0 .856.125 1.125.38.27.253.403.667.403 1.23v2.59h-1.133v-2.606c0-.43-.062-.73-.195-.906-.137-.172-.301-.262-.5-.262q-.244.002-.442.098a.8.8 0 0 0-.308.238q.035.081.07.192.024.092.047.261.023.165.023.387v2.598h-1.132v-2.606c0-.43-.07-.73-.196-.906-.137-.172-.3-.262-.5-.262a.73.73 0 0 0-.387.121c-.125.078-.222.16-.277.23 0 .04.016.079.024.126.007.043.023.09.023.152 0 .055.008.117.008.192v2.96h-1.13v-2.968a2.4 2.4 0 0 0-.023-.352c-.02-.11-.042-.2-.082-.277a.4.4 0 0 0-.18-.176.7.7 0 0 0-.316-.062h-.09v-.262h.864c.176 0 .324.023.453.07q.187.077.285.254h.031Zm0 0" style="stroke:none;fill-rule:nonzero;fill:#009cc6;fill-opacity:1"/><path d="M94.309 63.548c-.701-5.08.79-8.928 3.253-12.01 2.128-2.657 4.927-4.926 9.578-4.498 3.752.35 5.322 3.381 6.59 6.418.509-1.27-.222-3.878 1.67-3.918 1.16-.02 1.85 1.02 2.25 1.669.958 1.56 1.062 3.873.578 6.083-.4 1.836-1.037 3.878.504 4.838.32.202 1.056.428 1.747.502 1.14.118 2.632-.26 3.002.418.78 1.418-1.94 3.239-2.829 3.411-2.34.468-4.24-1.309-4.843-2.923-1.279 1.614-2.888 3.75-5.09 5.251-2.039 1.393-4.73 2.722-7.341 2.919-5.209.403-7.667-2.436-8.748-6.418-.04 1.171-1.58.95-2.671.841-3.688-1.983-6.171-5.172-8.25-8.76-1.58 2.938-3.5 6.177-5.998 9.09-2.3 2.687-5.42 5.419-9.923 5.168-3.436-.187-5.218-2.687-5.588-6.25-.608.172-1.26.94-2 1.092-2.29.458-4.172-1.28-4.75-2.83-.878.89-1.579 1.86-2.418 2.751-1.624 1.728-3.614 3.21-6.092 4.248-1.689.708-3.451 1.26-5.92 1.078-5.949-.429-8.328-7.27-7-13.757.568-2.79 1.9-5.123 3.668-7.082 2.133-2.367 4.813-4.267 9.084-3.839 3.737.38 5.248 3.43 6.586 6.418.404-1.54-.178-3.839 1.584-3.918 1.21-.049 1.748.94 2.168 1.58.78 1.181 1.15 2.57 1.002 4.67-.114 1.492-1.022 3.47-.83 4.75.306 2.132 2.656 2.122 4.997 2.092.79-3.72 2.76-6.87 5.252-9.504 2.38-2.51 5.717-4.656 10.091-4.67 1.146 0 2.168.201 2.997.674-1.057-4.213-.77-9.952.499-13.924.281-.876 1.012-3.11 1.92-3.248 1.372-.212 2.794 2.57 3.174 3.5.647 1.589.988 3.568 1.156 5.418.454 4.67-.677 8.072-1.58 11.423 1.812 4.78 4.073 9.11 8.501 11.247m-10.417-25.51c-.464 1.073-.883 3.45-1.002 5.503-.079 1.53.03 2.687.252 3.75.089.438.109 1.157.666 1.167.37-.729.494-1.679.672-2.668.45-2.54.43-5.562-.33-7.752ZM51.19 56.21c-.148-.94-.681-2.057-1.249-2.997-.883-1.472-2.093-3.032-4.423-2.751-1.54.177-2.997 1.29-3.999 2.17-2.34 2.048-4.488 5.31-4.25 9.588.192 3.43 2.379 5.59 6.17 4.921 1.012-.182 1.98-.64 2.913-1.082 2.8-1.33 4.927-2.998 6.576-5.508.054 0 .094-.069 0-.079-1.63.33-1.54-2.943-1.748-4.252m60.69 2.5c-.238-.93-.149-1.639-.331-2.588-.5-2.59-2.39-6.089-5.668-5.67-1.96.25-4.23 2.2-5.579 3.829-1.53 1.84-2.434 4.321-2.592 6.59-.261 3.868 1.398 6.748 5.589 6.34 2.152-.208 4.182-1.37 5.83-2.501 1.753-1.201 3.249-2.55 4.251-4.169-1.18-.069-1.269-.92-1.5-1.83m-38.261-4.002c-1.017.783-2.168 1.52-3.081 2.343-1.14 1.019-1.896 2.087-2.75 3.5-.79 1.298-1.698 3.149-1.496 4.749.099.821.938 1.958 1.669 2.081 1.407.237 3.229-1.161 4.25-1.919 1.18-.871 2.499-1.924 3.328-2.924 1.012-1.21 1.59-2.278 2.503-3.75.316-.507.736-1.176 1.17-1.91.36-.62 1.027-1.638.997-2.17-.069-1.186-1.841-2.047-2.829-1.92-.059 0-.088.084-.088.084-1.343.217-2.602 1.019-3.673 1.836M6.62 54.55c1.14-1.998 1.792-4.35 3.17-6.422.39-.576 1.071-1.457 1.58-1.58 1.041-.236 2.019.423 2.498 1.004 1.57 1.9 1.1 6.226 1.254 9.499 1.328-1.85 2.75-5.173 4.67-6.999.74-.704 1.93-1.644 3.589-1.343.41.083 1.249.57 1.669.92.982.822 1.95 2.333 2.67 3.672 1.788 3.341 3.051 7.57 4.419 11.418.281.802.72 1.61.84 2.25.182 1.013.083 2.11-.09 2.75-.32.099-.957.522-1.421.419-.81-.187-1.916-3.229-2.247-3.997-1.57-3.652-2.611-7.343-4.581-10.842-.39-.69-.879-1.64-1.422-1.669-1.007-.049-2.029 2.22-2.577 3.258-.79 1.462-1.353 2.653-2 3.83-.78 1.412-1.51 2.524-2.093 3.75-.587 1.26-1.21 3.603-2.996 3.42-1.871-.186-2.173-3.366-2.34-5.079-.252-2.598-.252-4.36-.252-7.087-1.93 3.918-2.572 7.639-4.172 11.837-.34.9-.997 3.243-1.668 3.593-.632.32-2.138.167-2.661-.33-.548-.532-.85-1.664-.919-2.673-.192-2.608.489-4.97.672-7.58.108-1.628 0-3.14 0-4.498 0-1.49.187-3.07 0-4.42-.124-.86-.73-1.81-.672-2.583.08-.906 1.25-2.377 1.832-2.5 1.678-.35 2.236 2.091 2.577 3.42.43 1.634.73 3.022.671 4.592M129.909 54.55c1.041-2.062 1.91-4.3 3.253-6.339.42-.64.889-1.52 1.496-1.673 1.042-.246 2.034.423 2.503 1.004 1.55 1.92 1.13 6.197 1.249 9.5 1.382-1.852 2.78-5.302 4.75-7.093.74-.68 1.92-1.54 3.5-1.25.419.083 1.248.57 1.668.92.992.832 1.94 2.299 2.67 3.672 1.423 2.667 2.464 5.891 3.58 8.997.42 1.18.82 2.313 1.254 3.504.316.876.78 2.82.326 3.918-.316.118-.938.531-1.417.418-.79-.187-1.92-3.219-2.251-3.997-1.53-3.642-2.632-7.333-4.592-10.842-.39-.699-.859-1.639-1.416-1.669-1.012-.049-2.02 2.23-2.582 3.259-1.442 2.643-2.859 5.099-4.088 7.58-.632 1.269-1.19 3.602-3.002 3.42-1.841-.187-2.162-3.337-2.34-5-.281-2.62-.212-4.371-.252-7.088-1.298 2.46-2.019 5.07-2.75 7.747-.468 1.742-1.327 3.681-2.078 5.753-.252.68-.469 1.487-.84 1.747-.591.424-2.27.3-2.828-.246-.543-.521-.844-1.653-.923-2.672-.198-2.56.489-5.01.671-7.58.109-1.639 0-3.16 0-4.498 0-1.53.178-3.052 0-4.42-.118-.851-.73-1.84-.671-2.584.069-.9 1.372-2.48 2-2.5 1.5-.05 2.053 1.85 2.423 3.17a17.8 17.8 0 0 1 .667 4.843M163.341 58.72c-1.2 1.82-2.972 4.508-2 7.092.39 1.048 1.398 1.757 2.918 1.919 1.753.177 4.601-.01 6.423-.172 1.086-.089 5.12-.94 5.416.423.37 1.678-3.318 2.717-4.498 2.997-1.58.37-4.72.65-6.921.502-4.848-.32-7.948-3.45-7.42-8.5.232-2.22 1.22-4.301 2.172-5.999 1.817-3.293 5.169-5.734 8.67-7.673 1.717-.95 4.008-2.008 6.417-2.077 2.35-.074 4.62 1.467 4.843 3.667.301 3.022-1.93 5.202-3.589 6.669-2.024 1.791-4.132 3.164-6.754 3.42-2.907.29-4.7-.457-5.667-2.249m2.829-2.83c.622 1.659 2.522 1.181 3.999.502 2.33-1.063 4.69-2.973 5.252-5.251-4.27.398-6.709 2.628-9.251 4.75" style="fill:none;stroke-width:3;stroke-linecap:butt;stroke-linejoin:miter;stroke:#fff;stroke-opacity:1;stroke-miterlimit:10" transform="matrix(.79124 0 0 .79368 0 .158)"/><path d="M74.621 51.2c-.555-4.032.625-7.087 2.574-9.532 1.684-2.113 3.899-3.914 7.578-3.574 2.97.281 4.211 2.683 5.215 5.097.403-1.007-.175-3.082 1.32-3.113.919-.016 1.465.813 1.782 1.328.758 1.246.84 3.07.457 4.832-.317 1.461-.82 3.078.398 3.84.254.16.836.344 1.383.399.902.093 2.082-.207 2.375.332.617 1.129-1.535 2.574-2.238 2.707-1.852.375-3.356-1.04-3.832-2.309-1.012 1.277-2.285 2.977-4.028 4.168-1.613 1.102-3.742 2.156-5.808 2.316-4.121.317-6.067-1.937-6.922-5.093-.031.925-1.25.746-2.113.664-2.918-1.57-4.883-4.102-6.528-6.953-1.25 2.336-2.77 4.906-4.746 7.214-1.82 2.137-4.289 4.301-7.851 4.106-2.719-.152-4.13-2.137-4.422-4.969-.48.133-.996.746-1.582.856-1.813.367-3.301-1.016-3.758-2.246-.695.707-1.25 1.476-1.914 2.183a13.95 13.95 0 0 1-4.82 3.371c-1.336.567-2.73 1-4.684.86-4.707-.34-6.59-5.77-5.539-10.922.45-2.215 1.504-4.063 2.902-5.617 1.688-1.883 3.809-3.391 7.188-3.051 2.957.304 4.152 2.722 5.21 5.097.321-1.222-.14-3.046 1.255-3.113.957-.039 1.382.754 1.715 1.262.617.937.91 2.043.792 3.707-.09 1.183-.808 2.746-.656 3.77.242 1.69 2.102 1.683 3.953 1.66.625-2.954 2.184-5.454 4.157-7.54 1.882-1.992 4.523-3.699 7.984-3.707.906 0 1.715.16 2.371.532-.836-3.34-.61-7.899.395-11.047.222-.707.8-2.469 1.52-2.582 1.085-.164 2.21 2.043 2.51 2.781.513 1.262.782 2.832.915 4.3.36 3.7-.535 6.407-1.25 9.063 1.433 3.793 3.223 7.23 6.726 8.938m-8.242-20.246c-.367.847-.699 2.738-.793 4.363-.062 1.215.024 2.137.2 2.977.07.351.085.921.527.93.293-.579.39-1.333.531-2.122.356-2.015.34-4.41-.262-6.148ZM40.503 45.39c-.116-.746-.538-1.637-.987-2.383-.7-1.168-1.657-2.406-3.5-2.184-1.22.145-2.371 1.024-3.164 1.723C31 44.176 29.3 46.762 29.488 50.16c.153 2.715 1.883 4.438 4.883 3.903.8-.141 1.566-.508 2.305-.856 2.215-1.055 3.898-2.383 5.203-4.375.043 0 .074-.055 0-.062-1.29.261-1.219-2.333-1.383-3.372m48.02 1.985c-.188-.738-.118-1.305-.262-2.051-.395-2.055-1.89-4.832-4.484-4.5-1.551.2-3.348 1.746-4.415 3.043-1.21 1.457-1.925 3.426-2.05 5.23-.207 3.07 1.105 5.356 4.422 5.032 1.703-.168 3.308-1.09 4.613-1.985 1.387-.953 2.57-2.023 3.363-3.312-.933-.055-1.004-.727-1.187-1.45m-30.274-3.175c-.804.617-1.715 1.207-2.437 1.847-.903.813-1.5 1.66-2.176 2.778-.625 1.035-1.344 2.5-1.184 3.773.078.649.742 1.555 1.32 1.657 1.114.183 2.555-.918 3.364-1.524.934-.691 1.976-1.523 2.633-2.316.8-.961 1.258-1.809 1.98-2.977.25-.406.582-.937.926-1.523.285-.492.812-1.301.789-1.715-.055-.945-1.457-1.63-2.238-1.524-.047 0-.07.063-.07.063-1.063.176-2.06.809-2.907 1.46M5.238 44.047c.903-1.586 1.418-3.453 2.508-5.094.309-.46.848-1.168 1.25-1.254.824-.191 1.598.332 1.977.793 1.242 1.508.87 4.946.992 7.54 1.05-1.47 2.176-4.102 3.695-5.555.586-.555 1.527-1.301 2.84-1.063.324.063.988.45 1.32.73.778.649 1.543 1.848 2.114 2.91 1.414 2.653 2.414 6.008 3.496 9.067.222.625.57 1.277.664 1.785.144.809.066 1.672-.07 2.184-.254.078-.758.41-1.126.332-.64-.152-1.515-2.563-1.777-3.176-1.242-2.894-2.066-5.824-3.625-8.601-.308-.551-.695-1.305-1.125-1.329-.797-.039-1.605 1.762-2.039 2.582-.625 1.157-1.07 2.102-1.582 3.04-.617 1.117-1.195 2-1.656 2.976-.465 1-.957 2.856-2.371 2.715-1.48-.152-1.72-2.676-1.852-4.043-.2-2.063-.2-3.457-.2-5.625-1.526 3.11-2.034 6.062-3.3 9.398-.27.711-.789 2.57-1.32 2.848-.5.254-1.692.145-2.106-.262-.433-.422-.672-1.316-.726-2.12-.153-2.071.386-3.942.531-6.016.086-1.293 0-2.493 0-3.57 0-1.184.148-2.438 0-3.509-.098-.683-.578-1.437-.531-2.046.062-.723.988-1.891 1.449-1.985 1.328-.277 1.77 1.656 2.039 2.715.34 1.293.578 2.395.531 3.633M102.79 44.047c.823-1.633 1.51-3.41 2.573-5.031.332-.508.703-1.207 1.184-1.317.824-.199 1.61.324 1.98.793 1.227 1.524.895 4.922.989 7.54 1.093-1.47 2.199-4.208 3.757-5.618.586-.539 1.52-1.223 2.77-1 .332.063.988.441 1.32.73.785.657 1.535 1.825 2.114 2.91 1.125 2.122 1.949 4.676 2.832 7.145.332.93.648 1.832.992 2.778.25.699.617 2.238.258 3.113-.25.094-.743.418-1.121.332-.626-.152-1.52-2.555-1.782-3.176-1.21-2.887-2.082-5.816-3.633-8.601-.308-.56-.68-1.297-1.12-1.329-.801-.039-1.598 1.762-2.044 2.582-1.14 2.094-2.261 4.047-3.234 6.024-.5 1.008-.941 2.855-2.375 2.715-1.457-.153-1.71-2.653-1.852-3.969-.222-2.082-.168-3.469-.199-5.629-1.027 1.953-1.597 4.023-2.176 6.152-.37 1.38-1.05 2.922-1.644 4.563-.2.539-.371 1.184-.664 1.39-.469.34-1.797.239-2.238-.199-.43-.414-.668-1.308-.73-2.12-.157-2.032.386-3.973.53-6.016.086-1.301 0-2.508 0-3.57 0-1.216.141-2.423 0-3.509-.093-.675-.578-1.46-.53-2.046.054-.707 1.085-1.97 1.581-1.985 1.188-.039 1.625 1.469 1.918 2.516.371 1.324.52 2.547.527 3.832M129.242 47.36c-.949 1.44-2.351 3.57-1.582 5.617.309.832 1.106 1.398 2.309 1.523 1.386.145 3.64 0 5.082-.125.86-.082 4.05-.746 4.285.332.293 1.332-2.625 2.16-3.559 2.383-1.25.293-3.734.508-5.476.394-3.836-.254-6.29-2.738-5.871-6.746.183-1.761.965-3.414 1.718-4.761 1.438-2.61 4.09-4.547 6.86-6.086 1.36-.754 3.172-1.598 5.078-1.653 1.86-.054 3.656 1.168 3.832 2.914.238 2.395-1.527 4.133-2.84 5.293-1.601 1.422-3.27 2.508-5.344 2.715-2.3.223-3.718-.367-4.484-1.785m2.238-2.254c.492 1.316 1.996.934 3.164.395 1.844-.84 3.711-2.356 4.157-4.168-3.38.32-5.309 2.09-7.32 3.773" style="stroke:none;fill-rule:evenodd;fill:#009cc6;fill-opacity:1"/><path d="M157.324 5.309q.002 1.763-1.086 2.777-1.078 1.015-2.633 1.016-2.567.002-3.816-1.555a5.6 5.6 0 0 1-1.25-3.594q0-1.765 1.086-2.781c.719-.672 1.598-1.016 2.633-1.016 1.71 0 2.984.524 3.816 1.559a5.6 5.6 0 0 1 1.25 3.594m0 0" style="stroke:none;fill-rule:nonzero;fill:#009cc6;fill-opacity:1"/><path d="M3.188 65.54H1.78v2.897q-.002.276.055.446c.031.11.086.207.148.27a.5.5 0 0 0 .223.124c.086.024.184.043.285.043q.176 0 .363-.058c.13-.032.239-.078.348-.133l.031.64c-.257.122-.566.176-.933.176-.133 0-.266-.015-.41-.054a1 1 0 0 1-.395-.2 1.05 1.05 0 0 1-.293-.398c-.078-.164-.117-.387-.117-.656v-3.098H.055v-.625h1.039v-1.39h.687v1.39h1.407ZM5.285 61.89h.688v3.81h.023c.082-.138.176-.255.293-.364.121-.113.254-.207.399-.29.148-.077.3-.14.464-.187.168-.05.325-.074.485-.074q.939.001 1.39.5c.301.336.453.813.453 1.422v3.121h-.69v-2.723c0-.55-.095-.96-.286-1.253-.188-.297-.535-.438-1.043-.438-.031 0-.133.016-.293.04a1.25 1.25 0 0 0-.504.23 1.65 1.65 0 0 0-.476.562c-.141.254-.208.606-.208 1.047v2.52h-.687v-7.938ZM12.738 67.555c.024.246.078.476.176.691.094.215.227.406.387.563.16.16.347.28.554.375.204.086.434.136.68.136.371 0 .688-.09.957-.254.27-.175.477-.367.61-.597l.53.445q-.44.555-.964.793c-.36.16-.73.238-1.14.238-.364 0-.696-.062-1.012-.191a2.25 2.25 0 0 1-.801-.54c-.223-.23-.395-.5-.531-.816a2.8 2.8 0 0 1-.188-1.03c0-.376.063-.716.188-1.032.129-.32.3-.59.523-.82q.334-.345.785-.54c.301-.124.625-.19.973-.19q.556 0 .996.198c.293.137.539.309.734.532.2.222.348.476.461.777.102.305.157.613.157.953v.32H12.73Zm3.332-.563c0-.469-.144-.847-.418-1.14-.277-.297-.675-.438-1.172-.438-.222 0-.445.047-.648.133-.207.09-.398.207-.547.351a1.7 1.7 0 0 0-.379.508 1.25 1.25 0 0 0-.144.586ZM25.566 65.54h-1.164v4.288h-.687V65.54h-1.04v-.625h1.04v-1.34q-.002-.976.45-1.39c.3-.278.694-.414 1.194-.414.094 0 .2 0 .301.023q.151.023.3.059l-.124.625q-.134-.034-.262-.055a1.6 1.6 0 0 0-.27-.024 1 1 0 0 0-.46.094.66.66 0 0 0-.27.27 1.2 1.2 0 0 0-.125.406 3 3 0 0 0-.031.492v1.262h1.164v.625ZM27.605 66.445c0-.215 0-.437-.015-.66a70 70 0 0 1-.024-.87h.68v.913h.024a1.6 1.6 0 0 1 .539-.715 1.66 1.66 0 0 1 1.027-.328c.2 0 .367.024.516.067l-.133.68a1.2 1.2 0 0 0-.399-.055c-.258 0-.488.046-.68.152q-.282.151-.472.387-.195.24-.277.507c-.055.184-.09.36-.09.524v2.773h-.688v-3.382ZM32.45 67.555c.023.246.077.476.171.691a1.86 1.86 0 0 0 .945.938c.204.086.434.136.68.136.371 0 .688-.09.957-.254.27-.175.473-.367.61-.597l.527.445c-.29.371-.617.633-.965.793-.355.16-.727.238-1.137.238q-.543.001-1.015-.191a2.2 2.2 0 0 1-.797-.54c-.223-.23-.395-.5-.531-.816a2.8 2.8 0 0 1-.192-1.03c0-.376.067-.716.192-1.032.128-.32.3-.59.523-.82a2.37 2.37 0 0 1 1.754-.73q.562 0 1 .198c.293.137.535.309.734.532.2.222.348.476.461.777.102.305.156.613.156.953v.32h-4.082Zm3.331-.563c0-.469-.144-.847-.422-1.14-.277-.297-.672-.438-1.168-.438-.222 0-.445.047-.652.133a1.86 1.86 0 0 0-.926.86c-.093.19-.14.378-.14.585ZM39.594 64.906q.023.198.023.395v.398h.024c.078-.136.175-.254.293-.363.117-.113.254-.207.394-.29.152-.077.3-.14.469-.187q.246-.074.48-.074c.625 0 1.094.168 1.395.5.3.336.45.813.45 1.422v3.121h-.688v-2.723c0-.55-.094-.96-.286-1.253-.187-.297-.535-.438-1.043-.438a4 4 0 0 0-.292.04c-.16.03-.333.1-.508.23-.172.125-.34.316-.473.562-.145.254-.207.606-.207 1.047v2.52h-.687v-3.836c0-.133 0-.301-.016-.5a12 12 0 0 0-.04-.579h.712ZM49.477 66.063a1.46 1.46 0 0 0-.5-.458 1.37 1.37 0 0 0-.727-.19c-.285 0-.547.038-.77.132a1.736 1.736 0 0 0-.941 1.043 2.54 2.54 0 0 0 0 1.57 1.8 1.8 0 0 0 .367.625c.157.176.356.313.574.414.223.102.485.145.77.137.27 0 .516-.066.727-.191.214-.13.382-.278.5-.461l.562.43c-.246.284-.523.5-.824.632a2.5 2.5 0 0 1-.965.215 2.9 2.9 0 0 1-1.078-.184 2.3 2.3 0 0 1-.82-.539 2.3 2.3 0 0 1-.516-.824 3 3 0 0 1-.172-1.031c0-.375.055-.715.172-1.031q.181-.481.516-.829c.23-.23.496-.41.82-.539a2.8 2.8 0 0 1 1.078-.183c.332 0 .656.082.965.215.308.136.586.351.824.636l-.562.43ZM52.094 61.89h.691v3.81h.024c.078-.138.171-.255.293-.364.117-.113.25-.207.394-.29.149-.077.3-.14.465-.187.168-.05.324-.074.484-.074.625 0 1.094.168 1.395.5.297.336.45.813.45 1.422v3.121h-.688v-2.723c0-.55-.098-.96-.286-1.253-.191-.297-.539-.438-1.046-.438-.032 0-.133.016-.293.04a1.25 1.25 0 0 0-.504.23c-.176.125-.34.316-.477.562-.14.254-.203.606-.203 1.047v2.52h-.691v-7.938ZM63.973 69.82h-.688v-7.937h.688ZM67.793 63.016c0 .152-.055.27-.156.367a.52.52 0 0 1-.348.14.53.53 0 0 1-.352-.14.48.48 0 0 1-.156-.367c0-.149.055-.27.156-.364a.5.5 0 0 1 .352-.144c.125 0 .234.047.348.144a.48.48 0 0 1 .156.364m-.156 6.804h-.692v-4.914h.692ZM72.73 65.54h-1.164v4.288h-.687V65.54h-1.035v-.625h1.035v-1.34q0-.976.453-1.39.448-.415 1.191-.414c.098 0 .2 0 .301.023.106.016.2.035.301.059l-.125.625c-.086-.024-.176-.04-.262-.055a1.5 1.5 0 0 0-.27-.024 1 1 0 0 0-.456.094.62.62 0 0 0-.27.27 1.2 1.2 0 0 0-.125.406 3 3 0 0 0-.035.492v1.262h1.164v.625ZM75.184 67.555c.023.246.078.476.175.691a1.806 1.806 0 0 0 .941.938c.204.086.434.136.68.136.372 0 .688-.09.957-.254.27-.175.473-.367.61-.597l.531.445q-.441.555-.965.793c-.36.16-.73.238-1.14.238-.364 0-.696-.062-1.012-.191a2.25 2.25 0 0 1-.8-.54c-.224-.23-.395-.5-.532-.816a2.8 2.8 0 0 1-.188-1.03c0-.376.063-.716.188-1.032a2.412 2.412 0 0 1 1.305-1.36c.3-.124.625-.19.976-.19q.556 0 .996.198c.293.137.54.309.735.532.199.222.347.476.46.777.102.305.157.613.157.953v.32h-4.082Zm3.332-.563c0-.469-.145-.847-.422-1.14-.274-.297-.672-.438-1.168-.438-.223 0-.446.047-.649.133-.207.09-.398.207-.547.351a1.7 1.7 0 0 0-.378.508 1.25 1.25 0 0 0-.145.586ZM84.266 66.074a1.2 1.2 0 0 0-.418-.484 1.1 1.1 0 0 0-.641-.184q-.175.002-.363.04a1 1 0 0 0-.332.128.9.9 0 0 0-.239.219.65.65 0 0 0-.085.336c0 .23.078.394.234.5.16.101.406.2.723.27l.703.163c.34.083.625.231.855.47s.34.523.34.874q0 .392-.168.692-.163.281-.426.476a1.8 1.8 0 0 1-.61.27c-.23.054-.464.086-.702.086q-.569.001-1.055-.215-.488-.21-.828-.738l.594-.41c.14.218.316.402.527.53q.322.198.762.196.208 0 .418-.047c.144-.031.261-.078.37-.148a.718.718 0 0 0 .363-.621q.003-.369-.265-.532a2.4 2.4 0 0 0-.66-.254l-.672-.16a7 7 0 0 1-.34-.101 1.5 1.5 0 0 1-.417-.223 1.2 1.2 0 0 1-.348-.379 1.1 1.1 0 0 1-.152-.582c0-.254.046-.476.152-.656a1.3 1.3 0 0 1 .41-.461c.176-.121.363-.207.578-.27.215-.058.442-.09.672-.09q.51 0 .95.2c.292.136.523.36.679.683l-.617.41ZM89.813 65.54h-1.407v2.897q-.002.276.055.446c.031.11.086.207.148.27a.5.5 0 0 0 .223.124c.086.024.184.043.285.043q.175 0 .363-.058c.13-.032.239-.078.348-.133l.031.64c-.257.122-.566.176-.933.176-.133 0-.266-.015-.41-.054a1 1 0 0 1-.395-.2 1.05 1.05 0 0 1-.293-.398c-.078-.164-.117-.387-.117-.656v-3.098h-1.04v-.625h1.04v-1.39h.687v1.39h1.407v.625ZM93.723 68.969l1.496-4.063h.84l-2.446 6.192c-.152.379-.332.672-.562.902q-.344.335-.98.336c-.106 0-.216 0-.317-.008-.113 0-.215-.035-.317-.066l.07-.672q.225.117.524.117.364-.001.574-.23c.145-.149.262-.372.368-.649l.355-.945-2.012-4.977h.871ZM98.945 69.82h-.687v-7.937h.687ZM102.246 67.555c.024.246.078.476.172.691s.23.406.387.563c.16.16.347.28.554.375.207.086.438.136.68.136.375 0 .691-.09.957-.254.27-.168.477-.367.61-.597l.53.445q-.44.555-.964.793c-.356.16-.727.238-1.133.238-.363 0-.695-.062-1.012-.191a2.25 2.25 0 0 1-.8-.54q-.33-.344-.528-.816a2.7 2.7 0 0 1-.191-1.03c0-.376.062-.716.191-1.032a2.387 2.387 0 0 1 1.305-1.36c.3-.124.625-.19.973-.19q.556 0 .996.198c.293.137.539.309.738.532.195.222.348.476.457.777.105.305.16.613.16.953v.32h-4.082Zm3.328-.563q0-.702-.418-1.14c-.277-.297-.672-.438-1.172-.438-.222 0-.441.047-.648.133a1.78 1.78 0 0 0-.926.86c-.094.19-.14.378-.14.585ZM112.793 64.906h.687v.817h.024c.11-.168.246-.309.394-.43.153-.117.317-.211.485-.293.164-.078.34-.133.512-.164a2.7 2.7 0 0 1 .507-.059c.38 0 .735.067 1.051.192q.477.193.824.539c.23.23.41.5.54.82.124.317.187.656.187 1.031q0 .556-.188 1.032a2.415 2.415 0 0 1-1.363 1.355 2.75 2.75 0 0 1-1.558.137 2 2 0 0 1-.512-.168 3 3 0 0 1-.485-.293 1.9 1.9 0 0 1-.394-.43h-.024v3.844h-.687v-7.938Zm4.469 2.453c0-.27-.047-.53-.133-.77a1.9 1.9 0 0 0-.375-.62 1.8 1.8 0 0 0-.574-.414 1.9 1.9 0 0 0-.77-.149c-.285 0-.547.047-.781.149a2 2 0 0 0-.617.414 2 2 0 0 0-.414.62 2.08 2.08 0 0 0 0 1.54c.097.238.23.445.414.617a1.95 1.95 0 0 0 1.398.567q.426 0 .77-.153a1.7 1.7 0 0 0 .574-.414q.24-.259.375-.617.131-.355.133-.77M121.18 69.82h-.688v-7.937h.688ZM127.137 66.809v-.125q.001-1.271-1.258-1.27-.856-.001-1.496.578l-.418-.492c.457-.477 1.152-.715 2.07-.715.238 0 .469.031.692.106.218.07.41.171.57.316.156.145.289.324.387.54.093.214.148.476.148.776v2.192q0 .286.023.597c.016.204.04.372.06.508h-.677a3 3 0 0 1-.047-.39c-.007-.145-.015-.278-.015-.414h-.024c-.207.328-.441.566-.718.707-.278.144-.61.215-1.016.215a2.4 2.4 0 0 1-.625-.086 1.8 1.8 0 0 1-.535-.27 1.35 1.35 0 0 1-.383-.453 1.33 1.33 0 0 1-.14-.629c0-.395.1-.715.308-.934.207-.23.469-.398.777-.511.305-.11.64-.18.996-.203.356-.032.672-.043.965-.043Zm-.356.566q-.264 0-.656.023a3.4 3.4 0 0 0-.754.125 1.7 1.7 0 0 0-.617.313q-.256.21-.254.578 0 .242.105.414a.85.85 0 0 0 .27.285c.11.078.234.125.371.157.133.03.277.05.41.05.254 0 .469-.043.656-.129q.275-.129.47-.34c.124-.144.222-.312.277-.5.054-.19.086-.398.086-.613v-.355h-.356ZM133.11 65.54h-1.407v2.897q-.002.276.055.446c.031.11.086.207.148.27a.5.5 0 0 0 .223.124c.086.024.184.043.285.043q.175 0 .363-.058c.13-.032.239-.078.348-.133l.031.64c-.258.122-.566.176-.933.176-.133 0-.266-.015-.41-.054a1 1 0 0 1-.395-.2 1.05 1.05 0 0 1-.293-.398c-.078-.164-.117-.387-.117-.656v-3.098h-1.04v-.625h1.04v-1.39h.687v1.39h1.407v.625ZM137.484 65.54h-1.16v4.288h-.691V65.54h-1.035v-.625h1.035v-1.34q0-.976.453-1.39c.3-.278.695-.414 1.195-.414.094 0 .196 0 .301.023.102.023.195.035.3.059l-.128.625a3 3 0 0 0-.262-.055 1.5 1.5 0 0 0-.265-.024 1 1 0 0 0-.461.094.64.64 0 0 0-.27.27 1.2 1.2 0 0 0-.125.406 3 3 0 0 0-.031.492v1.262h1.164v.625ZM144.402 67.367q.001.557-.191 1.031a2.4 2.4 0 0 1-.54.817c-.226.23-.503.414-.82.539a2.8 2.8 0 0 1-1.054.191c-.387 0-.719-.062-1.043-.191a2.42 2.42 0 0 1-1.36-1.356 2.7 2.7 0 0 1-.19-1.03c0-.376.062-.716.19-1.032.126-.32.31-.59.536-.82q.347-.345.824-.54a2.8 2.8 0 0 1 1.043-.19c.383 0 .738.066 1.055.19a2.42 2.42 0 0 1 1.359 1.36c.129.316.191.656.191 1.031m-.754 0c0-.27-.046-.531-.125-.77a1.9 1.9 0 0 0-.37-.62 1.8 1.8 0 0 0-.579-.415 1.9 1.9 0 0 0-.77-.148c-.284 0-.542.047-.765.148-.23.106-.418.239-.578.415a1.9 1.9 0 0 0-.363.62 2.2 2.2 0 0 0-.13.77c0 .278.044.531.13.77q.129.358.363.617c.16.176.348.312.578.414s.48.152.766.152c.285 0 .547-.05.77-.152.23-.102.417-.238.577-.414.157-.172.286-.379.371-.617a2.2 2.2 0 0 0 .125-.77M146.879 66.445c0-.215 0-.437-.016-.66a70 70 0 0 1-.023-.87h.68v.913h.023a1.572 1.572 0 0 1 .54-.715 1.63 1.63 0 0 1 1.026-.328c.2 0 .364.024.516.067l-.137.68a1.2 1.2 0 0 0-.394-.055c-.27 0-.492.046-.68.152a1.55 1.55 0 0 0-.754.894c-.062.184-.086.36-.086.524v2.773h-.687v-3.382ZM151.617 66c0-.18 0-.363-.015-.547-.016-.183-.024-.363-.04-.547h.743v.746h.023q.25-.426.7-.652a1.96 1.96 0 0 1 .886-.223c.133 0 .274.016.426.04.148.035.293.081.433.152.145.07.27.176.399.308.117.137.219.305.308.516q.213-.473.665-.746.45-.27.949-.27.939.001 1.39.5c.301.336.453.813.453 1.422v3.121h-.687v-2.867q-.002-.748-.262-1.144-.263-.394-.972-.395-.391-.002-.653.148a1.3 1.3 0 0 0-.425.407q-.167.254-.239.57-.07.323-.07.668v2.613h-.688v-2.867q0-.748-.261-1.144-.264-.394-.973-.395c-.039 0-.137.016-.285.04a1.1 1.1 0 0 0-.469.23 1.7 1.7 0 0 0-.433.562c-.125.254-.192.606-.192 1.047v2.52h-.687v-3.82Zm0 0" style="stroke:none;fill-rule:nonzero;fill:#bfbdbc;fill-opacity:1"/></svg>